<mxfile host="app.diagrams.net" modified="2024-01-21T14:21:23.167Z" agent="Mozilla/5.0 (Windows NT 10.0; Win64; x64) AppleWebKit/537.36 (KHTML, like Gecko) Chrome/120.0.0.0 Safari/537.36" etag="07s41yPzUjI6Pg6N6m6l" version="21.3.2" type="device">
  <diagram id="C5RBs43oDa-KdzZeNtuy" name="Page-1">
    <mxGraphModel dx="1195" dy="650" grid="1" gridSize="10" guides="1" tooltips="1" connect="1" arrows="1" fold="1" page="1" pageScale="1" pageWidth="827" pageHeight="1169" math="0" shadow="0">
      <root>
        <mxCell id="WIyWlLk6GJQsqaUBKTNV-0" />
        <mxCell id="WIyWlLk6GJQsqaUBKTNV-1" parent="WIyWlLk6GJQsqaUBKTNV-0" />
        <mxCell id="WIyWlLk6GJQsqaUBKTNV-2" value="" style="rounded=0;html=1;jettySize=auto;orthogonalLoop=1;fontSize=11;endArrow=block;endFill=0;endSize=8;strokeWidth=1;shadow=0;labelBackgroundColor=none;edgeStyle=orthogonalEdgeStyle;" parent="WIyWlLk6GJQsqaUBKTNV-1" source="WIyWlLk6GJQsqaUBKTNV-3" target="WIyWlLk6GJQsqaUBKTNV-6" edge="1">
          <mxGeometry relative="1" as="geometry" />
        </mxCell>
        <mxCell id="WIyWlLk6GJQsqaUBKTNV-3" value="Start" style="rounded=1;whiteSpace=wrap;html=1;fontSize=12;glass=0;strokeWidth=1;shadow=0;" parent="WIyWlLk6GJQsqaUBKTNV-1" vertex="1">
          <mxGeometry x="299" y="80" width="120" height="40" as="geometry" />
        </mxCell>
        <mxCell id="WIyWlLk6GJQsqaUBKTNV-4" value="" style="rounded=0;html=1;jettySize=auto;orthogonalLoop=1;fontSize=11;endArrow=block;endFill=0;endSize=8;strokeWidth=1;shadow=0;labelBackgroundColor=none;edgeStyle=orthogonalEdgeStyle;" parent="WIyWlLk6GJQsqaUBKTNV-1" source="WIyWlLk6GJQsqaUBKTNV-6" target="WIyWlLk6GJQsqaUBKTNV-10" edge="1">
          <mxGeometry y="20" relative="1" as="geometry">
            <mxPoint as="offset" />
          </mxGeometry>
        </mxCell>
        <mxCell id="D9ivy2Zo__hn_GChXlRP-0" style="edgeStyle=orthogonalEdgeStyle;rounded=0;orthogonalLoop=1;jettySize=auto;html=1;entryX=0;entryY=0.5;entryDx=0;entryDy=0;fillColor=#d80073;strokeColor=#A50040;" edge="1" parent="WIyWlLk6GJQsqaUBKTNV-1" source="WIyWlLk6GJQsqaUBKTNV-6" target="WIyWlLk6GJQsqaUBKTNV-11">
          <mxGeometry relative="1" as="geometry">
            <mxPoint x="318.97" y="725" as="targetPoint" />
            <Array as="points">
              <mxPoint x="70" y="190" />
              <mxPoint x="70" y="980" />
            </Array>
          </mxGeometry>
        </mxCell>
        <mxCell id="WIyWlLk6GJQsqaUBKTNV-6" value="Loop 1:&lt;br&gt;i&amp;lt;32?" style="rhombus;whiteSpace=wrap;html=1;shadow=0;fontFamily=Helvetica;fontSize=12;align=center;strokeWidth=1;spacing=6;spacingTop=-4;fillColor=#d80073;fontColor=#ffffff;strokeColor=#A50040;" parent="WIyWlLk6GJQsqaUBKTNV-1" vertex="1">
          <mxGeometry x="308.97" y="150" width="100" height="80" as="geometry" />
        </mxCell>
        <mxCell id="D9ivy2Zo__hn_GChXlRP-5" style="edgeStyle=orthogonalEdgeStyle;rounded=0;orthogonalLoop=1;jettySize=auto;html=1;entryX=0;entryY=0.5;entryDx=0;entryDy=0;fillColor=#60a917;strokeColor=#2D7600;" edge="1" parent="WIyWlLk6GJQsqaUBKTNV-1" source="WIyWlLk6GJQsqaUBKTNV-10" target="D9ivy2Zo__hn_GChXlRP-1">
          <mxGeometry relative="1" as="geometry">
            <Array as="points">
              <mxPoint x="90" y="310" />
              <mxPoint x="90" y="925" />
            </Array>
          </mxGeometry>
        </mxCell>
        <mxCell id="D9ivy2Zo__hn_GChXlRP-31" style="edgeStyle=orthogonalEdgeStyle;rounded=0;orthogonalLoop=1;jettySize=auto;html=1;entryX=0.5;entryY=0;entryDx=0;entryDy=0;" edge="1" parent="WIyWlLk6GJQsqaUBKTNV-1" source="WIyWlLk6GJQsqaUBKTNV-10" target="D9ivy2Zo__hn_GChXlRP-9">
          <mxGeometry relative="1" as="geometry" />
        </mxCell>
        <mxCell id="WIyWlLk6GJQsqaUBKTNV-10" value="Loop 1:&lt;br&gt;j&amp;lt;32?" style="rhombus;whiteSpace=wrap;html=1;shadow=0;fontFamily=Helvetica;fontSize=12;align=center;strokeWidth=1;spacing=6;spacingTop=-4;fillColor=#60a917;fontColor=#ffffff;strokeColor=#2D7600;" parent="WIyWlLk6GJQsqaUBKTNV-1" vertex="1">
          <mxGeometry x="308.97" y="270" width="100" height="80" as="geometry" />
        </mxCell>
        <mxCell id="WIyWlLk6GJQsqaUBKTNV-11" value="End for" style="rounded=1;whiteSpace=wrap;html=1;fontSize=12;glass=0;strokeWidth=1;shadow=0;fillColor=#d80073;fontColor=#ffffff;strokeColor=#A50040;" parent="WIyWlLk6GJQsqaUBKTNV-1" vertex="1">
          <mxGeometry x="298.97" y="960.03" width="120" height="40" as="geometry" />
        </mxCell>
        <mxCell id="D9ivy2Zo__hn_GChXlRP-7" style="edgeStyle=orthogonalEdgeStyle;rounded=0;orthogonalLoop=1;jettySize=auto;html=1;entryX=0;entryY=0.5;entryDx=0;entryDy=0;fillColor=#60a917;strokeColor=#2D7600;" edge="1" parent="WIyWlLk6GJQsqaUBKTNV-1" source="D9ivy2Zo__hn_GChXlRP-1" target="D9ivy2Zo__hn_GChXlRP-6">
          <mxGeometry relative="1" as="geometry" />
        </mxCell>
        <mxCell id="D9ivy2Zo__hn_GChXlRP-1" value="End for" style="rounded=1;whiteSpace=wrap;html=1;fontSize=12;glass=0;strokeWidth=1;shadow=0;fillColor=#60a917;fontColor=#ffffff;strokeColor=#2D7600;" vertex="1" parent="WIyWlLk6GJQsqaUBKTNV-1">
          <mxGeometry x="298.97" y="905.03" width="120" height="40" as="geometry" />
        </mxCell>
        <mxCell id="D9ivy2Zo__hn_GChXlRP-15" style="edgeStyle=orthogonalEdgeStyle;rounded=0;orthogonalLoop=1;jettySize=auto;html=1;entryX=0;entryY=0.5;entryDx=0;entryDy=0;fillColor=#1ba1e2;strokeColor=#006EAF;" edge="1" parent="WIyWlLk6GJQsqaUBKTNV-1" source="D9ivy2Zo__hn_GChXlRP-2" target="D9ivy2Zo__hn_GChXlRP-12">
          <mxGeometry relative="1" as="geometry" />
        </mxCell>
        <mxCell id="D9ivy2Zo__hn_GChXlRP-2" value="End for" style="rounded=1;whiteSpace=wrap;html=1;fontSize=12;glass=0;strokeWidth=1;shadow=0;fillColor=#1ba1e2;fontColor=#ffffff;strokeColor=#006EAF;" vertex="1" parent="WIyWlLk6GJQsqaUBKTNV-1">
          <mxGeometry x="298.97" y="845.03" width="120" height="40" as="geometry" />
        </mxCell>
        <mxCell id="D9ivy2Zo__hn_GChXlRP-16" style="edgeStyle=orthogonalEdgeStyle;rounded=0;orthogonalLoop=1;jettySize=auto;html=1;entryX=0;entryY=0.5;entryDx=0;entryDy=0;fillColor=#008a00;strokeColor=#005700;" edge="1" parent="WIyWlLk6GJQsqaUBKTNV-1" source="D9ivy2Zo__hn_GChXlRP-3" target="D9ivy2Zo__hn_GChXlRP-13">
          <mxGeometry relative="1" as="geometry" />
        </mxCell>
        <mxCell id="D9ivy2Zo__hn_GChXlRP-3" value="End for" style="rounded=1;whiteSpace=wrap;html=1;fontSize=12;glass=0;strokeWidth=1;shadow=0;fillColor=#008a00;fontColor=#ffffff;strokeColor=#005700;" vertex="1" parent="WIyWlLk6GJQsqaUBKTNV-1">
          <mxGeometry x="298.97" y="785.03" width="120" height="40" as="geometry" />
        </mxCell>
        <mxCell id="D9ivy2Zo__hn_GChXlRP-17" style="edgeStyle=orthogonalEdgeStyle;rounded=0;orthogonalLoop=1;jettySize=auto;html=1;entryX=0;entryY=0.5;entryDx=0;entryDy=0;fillColor=#0050ef;strokeColor=#001DBC;" edge="1" parent="WIyWlLk6GJQsqaUBKTNV-1" source="D9ivy2Zo__hn_GChXlRP-4" target="D9ivy2Zo__hn_GChXlRP-14">
          <mxGeometry relative="1" as="geometry" />
        </mxCell>
        <mxCell id="D9ivy2Zo__hn_GChXlRP-4" value="End for" style="rounded=1;whiteSpace=wrap;html=1;fontSize=12;glass=0;strokeWidth=1;shadow=0;fillColor=#0050ef;fontColor=#ffffff;strokeColor=#001DBC;" vertex="1" parent="WIyWlLk6GJQsqaUBKTNV-1">
          <mxGeometry x="298.97" y="725.03" width="120" height="40" as="geometry" />
        </mxCell>
        <mxCell id="D9ivy2Zo__hn_GChXlRP-8" style="edgeStyle=orthogonalEdgeStyle;rounded=0;orthogonalLoop=1;jettySize=auto;html=1;entryX=1;entryY=0.5;entryDx=0;entryDy=0;fillColor=#d80073;strokeColor=#A50040;" edge="1" parent="WIyWlLk6GJQsqaUBKTNV-1" source="D9ivy2Zo__hn_GChXlRP-6" target="WIyWlLk6GJQsqaUBKTNV-6">
          <mxGeometry relative="1" as="geometry">
            <Array as="points">
              <mxPoint x="649" y="925.03" />
              <mxPoint x="649" y="190.03" />
            </Array>
          </mxGeometry>
        </mxCell>
        <mxCell id="D9ivy2Zo__hn_GChXlRP-6" value="Increment&lt;br&gt;i" style="rounded=1;whiteSpace=wrap;html=1;fontSize=12;glass=0;strokeWidth=1;shadow=0;fillColor=#d80073;fontColor=#ffffff;strokeColor=#A50040;" vertex="1" parent="WIyWlLk6GJQsqaUBKTNV-1">
          <mxGeometry x="499" y="905.03" width="66" height="40" as="geometry" />
        </mxCell>
        <mxCell id="D9ivy2Zo__hn_GChXlRP-32" style="edgeStyle=orthogonalEdgeStyle;rounded=0;orthogonalLoop=1;jettySize=auto;html=1;entryX=0.5;entryY=0;entryDx=0;entryDy=0;" edge="1" parent="WIyWlLk6GJQsqaUBKTNV-1" source="D9ivy2Zo__hn_GChXlRP-9" target="D9ivy2Zo__hn_GChXlRP-10">
          <mxGeometry relative="1" as="geometry" />
        </mxCell>
        <mxCell id="D9ivy2Zo__hn_GChXlRP-35" style="edgeStyle=orthogonalEdgeStyle;rounded=0;orthogonalLoop=1;jettySize=auto;html=1;entryX=0;entryY=0.5;entryDx=0;entryDy=0;fillColor=#1ba1e2;strokeColor=#006EAF;" edge="1" parent="WIyWlLk6GJQsqaUBKTNV-1" source="D9ivy2Zo__hn_GChXlRP-9" target="D9ivy2Zo__hn_GChXlRP-2">
          <mxGeometry relative="1" as="geometry">
            <Array as="points">
              <mxPoint x="110" y="415" />
              <mxPoint x="110" y="865" />
            </Array>
          </mxGeometry>
        </mxCell>
        <mxCell id="D9ivy2Zo__hn_GChXlRP-9" value="Loop 1:&lt;br&gt;k&amp;lt;32?" style="rhombus;whiteSpace=wrap;html=1;shadow=0;fontFamily=Helvetica;fontSize=12;align=center;strokeWidth=1;spacing=6;spacingTop=-4;fillColor=#1ba1e2;fontColor=#ffffff;strokeColor=#006EAF;" vertex="1" parent="WIyWlLk6GJQsqaUBKTNV-1">
          <mxGeometry x="309" y="375.03" width="100" height="80" as="geometry" />
        </mxCell>
        <mxCell id="D9ivy2Zo__hn_GChXlRP-33" style="edgeStyle=orthogonalEdgeStyle;rounded=0;orthogonalLoop=1;jettySize=auto;html=1;entryX=0.5;entryY=0;entryDx=0;entryDy=0;" edge="1" parent="WIyWlLk6GJQsqaUBKTNV-1" source="D9ivy2Zo__hn_GChXlRP-10" target="D9ivy2Zo__hn_GChXlRP-11">
          <mxGeometry relative="1" as="geometry" />
        </mxCell>
        <mxCell id="D9ivy2Zo__hn_GChXlRP-34" style="edgeStyle=orthogonalEdgeStyle;rounded=0;orthogonalLoop=1;jettySize=auto;html=1;entryX=-0.041;entryY=0.588;entryDx=0;entryDy=0;entryPerimeter=0;fillColor=#008a00;strokeColor=#005700;" edge="1" parent="WIyWlLk6GJQsqaUBKTNV-1" source="D9ivy2Zo__hn_GChXlRP-10" target="D9ivy2Zo__hn_GChXlRP-3">
          <mxGeometry relative="1" as="geometry">
            <Array as="points">
              <mxPoint x="130" y="515" />
              <mxPoint x="130" y="809" />
            </Array>
          </mxGeometry>
        </mxCell>
        <mxCell id="D9ivy2Zo__hn_GChXlRP-10" value="Loop 1:&lt;br&gt;l&amp;lt;5?" style="rhombus;whiteSpace=wrap;html=1;shadow=0;fontFamily=Helvetica;fontSize=12;align=center;strokeWidth=1;spacing=6;spacingTop=-4;fillColor=#008a00;fontColor=#ffffff;strokeColor=#005700;" vertex="1" parent="WIyWlLk6GJQsqaUBKTNV-1">
          <mxGeometry x="309" y="475.03" width="100" height="80" as="geometry" />
        </mxCell>
        <mxCell id="D9ivy2Zo__hn_GChXlRP-26" style="edgeStyle=orthogonalEdgeStyle;rounded=0;orthogonalLoop=1;jettySize=auto;html=1;entryX=0;entryY=0.5;entryDx=0;entryDy=0;fillColor=#0050ef;strokeColor=#001DBC;" edge="1" parent="WIyWlLk6GJQsqaUBKTNV-1" source="D9ivy2Zo__hn_GChXlRP-11" target="D9ivy2Zo__hn_GChXlRP-4">
          <mxGeometry relative="1" as="geometry">
            <Array as="points">
              <mxPoint x="190" y="625" />
              <mxPoint x="190" y="745" />
            </Array>
          </mxGeometry>
        </mxCell>
        <mxCell id="D9ivy2Zo__hn_GChXlRP-28" style="edgeStyle=orthogonalEdgeStyle;rounded=0;orthogonalLoop=1;jettySize=auto;html=1;entryX=0;entryY=0.75;entryDx=0;entryDy=0;fillColor=#0050ef;strokeColor=#001DBC;" edge="1" parent="WIyWlLk6GJQsqaUBKTNV-1" source="D9ivy2Zo__hn_GChXlRP-11" target="D9ivy2Zo__hn_GChXlRP-27">
          <mxGeometry relative="1" as="geometry">
            <Array as="points">
              <mxPoint x="359" y="695.03" />
            </Array>
          </mxGeometry>
        </mxCell>
        <mxCell id="D9ivy2Zo__hn_GChXlRP-11" value="Loop 1:&lt;br&gt;m&amp;lt;5?" style="rhombus;whiteSpace=wrap;html=1;shadow=0;fontFamily=Helvetica;fontSize=12;align=center;strokeWidth=1;spacing=6;spacingTop=-4;fillColor=#0050ef;fontColor=#ffffff;strokeColor=#001DBC;" vertex="1" parent="WIyWlLk6GJQsqaUBKTNV-1">
          <mxGeometry x="308.97" y="585.03" width="100" height="80" as="geometry" />
        </mxCell>
        <mxCell id="D9ivy2Zo__hn_GChXlRP-24" style="edgeStyle=orthogonalEdgeStyle;rounded=0;orthogonalLoop=1;jettySize=auto;html=1;entryX=1;entryY=0.5;entryDx=0;entryDy=0;fillColor=#60a917;strokeColor=#2D7600;" edge="1" parent="WIyWlLk6GJQsqaUBKTNV-1" source="D9ivy2Zo__hn_GChXlRP-12" target="WIyWlLk6GJQsqaUBKTNV-10">
          <mxGeometry relative="1" as="geometry">
            <Array as="points">
              <mxPoint x="629" y="865.03" />
              <mxPoint x="629" y="310.03" />
            </Array>
          </mxGeometry>
        </mxCell>
        <mxCell id="D9ivy2Zo__hn_GChXlRP-12" value="Increment&lt;br&gt;j" style="rounded=1;whiteSpace=wrap;html=1;fontSize=12;glass=0;strokeWidth=1;shadow=0;fillColor=#60a917;fontColor=#ffffff;strokeColor=#2D7600;" vertex="1" parent="WIyWlLk6GJQsqaUBKTNV-1">
          <mxGeometry x="499" y="845.03" width="66" height="40" as="geometry" />
        </mxCell>
        <mxCell id="D9ivy2Zo__hn_GChXlRP-23" style="edgeStyle=orthogonalEdgeStyle;rounded=0;orthogonalLoop=1;jettySize=auto;html=1;entryX=1;entryY=0.5;entryDx=0;entryDy=0;fillColor=#1ba1e2;strokeColor=#006EAF;" edge="1" parent="WIyWlLk6GJQsqaUBKTNV-1" source="D9ivy2Zo__hn_GChXlRP-13" target="D9ivy2Zo__hn_GChXlRP-9">
          <mxGeometry relative="1" as="geometry">
            <Array as="points">
              <mxPoint x="609" y="805.03" />
              <mxPoint x="609" y="415.03" />
            </Array>
          </mxGeometry>
        </mxCell>
        <mxCell id="D9ivy2Zo__hn_GChXlRP-13" value="Increment&lt;br&gt;k" style="rounded=1;whiteSpace=wrap;html=1;fontSize=12;glass=0;strokeWidth=1;shadow=0;fillColor=#1ba1e2;fontColor=#ffffff;strokeColor=#006EAF;" vertex="1" parent="WIyWlLk6GJQsqaUBKTNV-1">
          <mxGeometry x="499" y="785.03" width="66" height="40" as="geometry" />
        </mxCell>
        <mxCell id="D9ivy2Zo__hn_GChXlRP-22" style="edgeStyle=orthogonalEdgeStyle;rounded=0;orthogonalLoop=1;jettySize=auto;html=1;entryX=1;entryY=0.5;entryDx=0;entryDy=0;fillColor=#008a00;strokeColor=#005700;" edge="1" parent="WIyWlLk6GJQsqaUBKTNV-1" source="D9ivy2Zo__hn_GChXlRP-14" target="D9ivy2Zo__hn_GChXlRP-10">
          <mxGeometry relative="1" as="geometry">
            <Array as="points">
              <mxPoint x="589" y="745.03" />
              <mxPoint x="589" y="515.03" />
            </Array>
          </mxGeometry>
        </mxCell>
        <mxCell id="D9ivy2Zo__hn_GChXlRP-14" value="Increment&lt;br&gt;l" style="rounded=1;whiteSpace=wrap;html=1;fontSize=12;glass=0;strokeWidth=1;shadow=0;fillColor=#008a00;fontColor=#ffffff;strokeColor=#005700;" vertex="1" parent="WIyWlLk6GJQsqaUBKTNV-1">
          <mxGeometry x="499" y="725.03" width="66" height="40" as="geometry" />
        </mxCell>
        <mxCell id="D9ivy2Zo__hn_GChXlRP-29" style="edgeStyle=orthogonalEdgeStyle;rounded=0;orthogonalLoop=1;jettySize=auto;html=1;fillColor=#0050ef;strokeColor=#001DBC;" edge="1" parent="WIyWlLk6GJQsqaUBKTNV-1" source="D9ivy2Zo__hn_GChXlRP-27">
          <mxGeometry relative="1" as="geometry">
            <mxPoint x="409" y="625.03" as="targetPoint" />
            <Array as="points">
              <mxPoint x="532" y="625.03" />
            </Array>
          </mxGeometry>
        </mxCell>
        <mxCell id="D9ivy2Zo__hn_GChXlRP-27" value="Increment&lt;br&gt;m" style="rounded=1;whiteSpace=wrap;html=1;fontSize=12;glass=0;strokeWidth=1;shadow=0;fillColor=#0050ef;fontColor=#ffffff;strokeColor=#001DBC;" vertex="1" parent="WIyWlLk6GJQsqaUBKTNV-1">
          <mxGeometry x="499" y="665.03" width="66" height="40" as="geometry" />
        </mxCell>
      </root>
    </mxGraphModel>
  </diagram>
</mxfile>
